HIERARCHY
ROOT Hips
{
  OFFSET -102.467 93.6631 130.069
  CHANNELS 6 Xposition Yposition Zposition Zrotation Xrotation Yrotation
  JOINT LeftUpLeg
  {
    OFFSET 8.64259 1.95398 -2.38835
    CHANNELS 3 Zrotation Xrotation Yrotation
    JOINT LeftLeg
    {
      OFFSET 43.7702 0 0
      CHANNELS 3 Zrotation Xrotation Yrotation
      JOINT LeftFoot
      {
        OFFSET 40.6238 0 0
        CHANNELS 3 Zrotation Xrotation Yrotation
        JOINT LeftToeBase
        {
          OFFSET 12.7242 0 0
          CHANNELS 3 Zrotation Xrotation Yrotation
          End Site
          {
            OFFSET 0 0 0
          }
        }
      }
    }
  }
  JOINT RightUpLeg
  {
    OFFSET -8.2249 1.95398 -2.59336
    CHANNELS 3 Zrotation Xrotation Yrotation
    JOINT RightLeg
    {
      OFFSET 43.5653 0 0
      CHANNELS 3 Zrotation Xrotation Yrotation
      JOINT RightFoot
      {
        OFFSET 40.6238 0 0
        CHANNELS 3 Zrotation Xrotation Yrotation
        JOINT RightToeBase
        {
          OFFSET 12.7242 0 0
          CHANNELS 3 Zrotation Xrotation Yrotation
          End Site
          {
            OFFSET 0 0 0
          }
        }
      }
    }
  }
  JOINT Spine
  {
    OFFSET 0.165834 0.87714 6.61349
    CHANNELS 3 Zrotation Xrotation Yrotation
    JOINT Spine1
    {
      OFFSET 7.38963 1.71661e-005 0
      CHANNELS 3 Zrotation Xrotation Yrotation
      JOINT Spine2
      {
        OFFSET 11.9445 1.14441e-005 0
        CHANNELS 3 Zrotation Xrotation Yrotation
        JOINT Spine3
        {
          OFFSET 14.7254 4.19617e-005 0
          CHANNELS 3 Zrotation Xrotation Yrotation
          JOINT Spine4
          {
            OFFSET 10.9679 0 0
            CHANNELS 3 Zrotation Xrotation Yrotation
            JOINT RightShoulder
            {
              OFFSET 2.46616 -1.6653 3.69651
              CHANNELS 3 Zrotation Xrotation Yrotation
              JOINT RightArm
              {
                OFFSET 13.0012 0 0
                CHANNELS 3 Zrotation Xrotation Yrotation
                JOINT RightForeArm
                {
                  OFFSET 28.7848 1.52588e-005 0
                  CHANNELS 3 Zrotation Xrotation Yrotation
                  JOINT RightHand
                  {
                    OFFSET 26.5688 1.52588e-005 0
                    CHANNELS 3 Zrotation Xrotation Yrotation
                    End Site
                    {
                      OFFSET 0 0 0
                    }
                  }
                }
              }
            }
            JOINT LeftShoulder
            {
              OFFSET 2.38034 -1.29275 -3.7523
              CHANNELS 3 Zrotation Xrotation Yrotation
              JOINT LeftArm
              {
                OFFSET 16.3182 6.10351e-005 0
                CHANNELS 3 Zrotation Xrotation Yrotation
                JOINT LeftForeArm
                {
                  OFFSET 27.0901 0 0
                  CHANNELS 3 Zrotation Xrotation Yrotation
                  JOINT LeftHand
                  {
                    OFFSET 24.5451 1.52588e-005 0
                    CHANNELS 3 Zrotation Xrotation Yrotation
                    End Site
                    {
                      OFFSET 0 0 0
                    }
                  }
                }
              }
            }
            JOINT Neck
            {
              OFFSET 5.0226 -0.0266342 0
              CHANNELS 3 Zrotation Xrotation Yrotation
              JOINT Head
              {
                OFFSET 6.69363 2.86102e-005 0
                CHANNELS 3 Zrotation Xrotation Yrotation
                End Site
                {
                  OFFSET 0 0 0
                }
              }
            }
          }
        }
      }
    }
  }
}
MOTION
Frames:	9
Frame Time:	0.0416667
-139.908 88.7809 141.921 98.1669 42.0456 85.3784 179.495 29.559 89.0284 -8.64714 16.3131 1.2027 53.1597 -0.476941 9.18473 49.09 -0.458635 7.82334 175.772 -9.69937 93.134 -39.6412 -5.74516 -1.58356 73.0978 2.15646 15.687 52.0438 -2.38002 8.76582 1.16831 8.0479 -90.7525 10.7915 1.97924 -1.68002 -0.879153 1.90339 -1.76551 -23.4226 2.39258 -1.00738 -3.40996 2.39262 -1.00737 99.8488 -43.0093 -86.1191 16.2587 -51.0827 -22.0441 -21.7251 22.9464 -94.447 13.0905 -0.163343 -6.21937 -80.6369 -44.3769 92.316 -4.66097 10.4677 5.66355 4.1301 3.68592 -37.1077 3.25267 -0.303682 -8.70658 12.3135 0.294989 1.45893 -20.3644 -1.01658 6.57458 
-127.357 85.4058 127.484 99.9115 37.2596 79.2131 -177.653 35.1697 83.4047 -37.7005 18.0861 -0.83476 50.2616 -2.85671 12.1972 51.9693 -1.03033 5.89323 172.439 -7.2887 80.3024 -56.9985 -13.5928 -3.85866 48.8199 10.8825 17.8186 41.195 2.77147 20.8072 1.22972 8.24632 -89.7486 10.3744 2.56469 0.283898 -1.29406 2.57472 0.170656 -23.8464 2.36068 1.04196 -3.83373 2.36071 1.04195 100.072 -44.3338 -85.6769 19.4156 -55.9223 -20.7269 -24.789 13.912 -73.8837 4.77988 0.0326218 -3.98929 -83.1829 -52.8775 89.028 -6.42279 12.9933 -1.62072 1.20942 1.84362 -35.2928 5.01714 -0.521728 -11.1202 18.1749 0.21924 -1.35084 -23.0377 -0.729204 8.11004 
-115.315 84.5651 115.668 105.472 42.065 72.8881 -175.319 29.1075 77.7151 -54.7521 23.8663 -1.88429 58.4586 7.72845 24.0951 46.7312 -1.99469 0.57744 176.206 8.79085 79.3516 -97.1656 -13.914 -4.15219 47.1249 8.34957 8.40118 38.7418 -3.79533 -4.404 0.288042 8.83886 -89.2576 9.18068 0.907 1.3986 -2.49081 0.96766 1.35733 -25.0194 0.444862 1.60649 -5.00679 0.444856 1.60648 100.628 -47.9837 -84.6297 24.543 -43.3876 -12.1132 -33.0788 -4.07721 -61.1539 2.94903 0.135314 0.402818 -87.2687 -54.4117 83.2771 -6.61365 22.0279 -21.2911 1.45771 7.69937 -34.2477 0.892853 -0.292448 -11.3907 25.7369 0.0556868 -4.35863 -25.8068 -0.0799839 8.92971 
-104.14 90.65 104.205 106.025 45.7894 78.0486 -177.22 14.314 83.1278 -49.7687 26.5435 1.48934 63.0569 9.94729 21.6574 48.796 -1.38956 4.27215 174.784 31.6938 87.8451 -110.555 -10.6752 -3.57794 48.6508 6.57391 8.0302 41.0699 -2.77291 0.766338 -0.565687 8.62583 -89.843 9.63269 -1.05671 0.396622 -2.03786 -1.03823 0.442742 -24.5772 -1.12708 0.0606576 -4.56456 -1.12707 0.0606543 100.957 -47.384 -84.1157 27.1766 -31.9681 0.223028 -33.6464 -8.38428 -60.0682 -1.1825 -0.05535 0.944193 -87.2485 -50.648 82.712 -7.68956 30.6602 -35.957 3.34201 5.13853 -44.6343 1.70699 -0.295473 -10.0763 22.506 2.14192 -5.70721 -25.4324 2.14557 9.84614 
-92.9236 100.378 92.9791 109.021 48.6842 80.7414 -178.059 1.66643 90.1082 -38.0974 18.4973 4.82779 44.5531 -8.69762 -0.520939 36.5314 -1.59389 -5.11053 171.767 37.9797 92.3809 -98.4276 -8.62194 -2.67385 55.4622 5.92541 12.1821 49.6623 -3.06717 5.7134 -1.28415 8.35505 -90.4494 10.1572 -2.76371 -0.658872 -1.51089 -2.79002 -0.536517 -24.064 -2.43787 -1.45943 -4.05138 -2.43788 -1.45944 101.695 -44.3847 -82.9527 22.9927 -30.7003 9.22347 -22.9279 -2.24152 -58.6457 -3.10802 -0.096251 -1.92667 -85.1594 -49.4658 85.6915 -5.2094 38.6219 -42.7898 3.38015 -3.18271 -60.982 -0.6273 -0.195465 -11.2517 13.2245 3.68592 -7.87606 -24.3575 3.12016 13.9371 
-82.8262 106.861 82.4562 109.925 50.0618 81.158 -177.401 -0.457486 89.884 -30.1898 17.3822 4.22485 42.6825 -9.16416 1.1132 19.9462 1.07479 -1.28498 173.885 36.7824 93.6281 -78.0084 -5.93181 -1.28184 60.2313 5.35497 14.5226 43.249 -2.8819 2.10444 -1.39207 8.26965 -90.4747 10.3283 -2.99053 -0.683744 -1.33937 -3.0177 -0.551355 -23.8959 -2.6467 -1.55144 -3.8832 -2.6467 -1.55144 101.442 -40.8078 -83.4341 20.287 -26.8463 17.7342 -15.1239 0.875154 -57.2416 -2.29969 -0.0847608 -1.74915 -84.4454 -47.1166 86.4907 3.47776 44.2828 -53.5741 7.44969 -9.57521 -76.9886 0.308808 -0.231597 -10.3182 12.2804 2.92451 -11.6105 -24.8909 2.88481 15.5643 
-72.4771 106.811 72.5058 110.062 54.596 82.1314 -175.459 0.908093 91.9239 -17.5977 15.4819 3.14135 42.0274 -10.7457 -2.77535 28.3812 0.131577 1.53848 174.921 30.5401 94.1982 -51.025 -6.04314 1.24638 61.9035 7.6693 20.5846 40.7862 -1.25177 6.19642 -1.64114 8.33183 -90.5612 10.1994 -3.52602 -0.815658 -1.4669 -3.55849 -0.65949 -24.0315 -3.11777 -1.83853 -4.0189 -3.11775 -1.83853 101.379 -38.9299 -83.5814 12.8679 -22.4499 20.6954 -8.60298 1.11224 -48.3529 -0.607396 -0.022895 -3.56138 -86.0874 -44.1549 83.427 10.6686 44.5625 -65.1561 9.07348 -13.8587 -89.4791 1.00351 -0.20961 -8.53469 15.7351 0.630547 -15.7778 -27.2024 1.60186 16.5869 
-62.1175 99.4226 62.761 115.879 57.6206 76.1473 -176.969 0.510473 88.0964 -30.8162 19.9791 3.78272 55.4412 0.458053 10.0696 39.8705 -1.46625 -0.508609 177.535 25.7232 92.3515 -31.0047 -0.833559 0.685093 61.8577 8.33839 22.0396 37.4234 -0.750134 5.42585 -1.72789 8.663 -90.3297 9.5405 -3.59356 -0.383237 -2.12553 -3.60693 -0.224512 -24.6951 -3.31205 -1.44667 -4.68247 -3.31207 -1.44668 101.893 -37.9364 -82.6528 6.36108 -14.8131 22.6243 -6.77444 -2.15561 -38.2187 -3.11288 -0.0835502 -2.19539 -86.5792 -39.8913 81.8616 15.1456 39.6467 -77.2249 5.50088 -14.8548 -96.1299 0.880546 -0.214356 -8.70333 12.9847 -0.82522 -18.46 -25.1305 0.760315 16.809 
-51.2796 91.4267 53.3179 121.187 55.5091 65.9621 -174.99 -7.4327 85.4964 -41.8122 26.506 2.33746 64.094 19.1344 33.682 57.965 -1.23388 6.83053 178.642 22.8181 86.8813 -15.165 -0.375199 -1.15237 58.5373 8.94167 22.3313 31.7154 0.33599 5.47668 -1.5444 9.19738 -89.5443 8.49308 -2.88039 1.08127 -3.17524 -2.83 1.20707 -25.7358 -3.07208 0.164836 -5.72314 -3.07208 0.164843 103.593 -38.0735 -79.5474 8.26637 -9.64827 21.326 -8.18686 -9.79163 -29.5565 -9.47537 -0.500097 1.00723 -86.8314 -37.8266 81.0062 16.8417 36.8219 -80.3236 13.8307 -15.5004 -94.1122 -2.49138 -0.0846647 -10.0156 14.439 -1.05146 -17.9467 -25.262 1.14054 14.0847 
